<svg xmlns="http://www.w3.org/2000/svg" version="1.1" xmlns:xlink="http://www.w3.org/1999/xlink" xmlns:svgjs="http://svgjs.com/svgjs" width="512" height="512" x="0" y="0" viewBox="0 0 64 64" style="enable-background:new 0 0 512 512" xml:space="preserve" class=""><g><g xmlns="http://www.w3.org/2000/svg" id="Fill_Outline" data-name="Fill Outline"><g id="Color"><circle cx="32" cy="27" fill="#e44848" r="24" data-original="#48cae4" class=""></circle><path d="m54.32 35.82a24 24 0 1 1 -31.14-31.14 23.743 23.743 0 0 0 -1.68 8.82 24.006 24.006 0 0 0 24 24 23.743 23.743 0 0 0 8.82-1.68z" fill="#d80000" data-original="#00b4d8" class=""></path><path d="m48 26s-7.163 9-16 9-16-9-16-9 7.163-9 16-9 16 9 16 9z" fill="#e9f1f2" data-original="#e9f1f2"></path><path d="m34.42 34.78a13.874 13.874 0 0 1 -2.42.22c-8.84 0-16-9-16-9a30.793 30.793 0 0 1 6.47-5.78 23.939 23.939 0 0 0 11.95 14.56z" fill="#d0d8da" data-original="#d0d8da" class=""></path><path d="m32 17c-8.84 0-16 9-16 9s7.16 9 16 9 16-9 16-9-7.16-9-16-9zm0 15c-5.42 0-10.2-3.38-13.09-6 2.89-2.62 7.67-6 13.09-6s10.2 3.38 13.09 6c-2.89 2.62-7.67 6-13.09 6z" fill="#d0d8da" data-original="#d0d8da" class=""></path><path d="m30.05 31.86c-4.61-.67-8.6-3.56-11.14-5.86a28.709 28.709 0 0 1 4.42-3.31 18.973 18.973 0 0 1 -.86-2.47 30.793 30.793 0 0 0 -6.47 5.78s7.16 9 16 9a13.874 13.874 0 0 0 2.42-.22 23.453 23.453 0 0 1 -4.37-2.92z" fill="#93999a" data-original="#93999a"></path><circle cx="32" cy="26" fill="#93999a" r="9" data-original="#93999a"></circle><path d="m40.75 28.12a9.006 9.006 0 1 1 -.48-5.67 16.713 16.713 0 0 0 -8.27-2.45 14.821 14.821 0 0 0 -5.52 1.12 8.987 8.987 0 0 0 14.27 7z" fill="#656b76" data-original="#656b76"></path><circle cx="32" cy="26" fill="#d0d8da" r="4" data-original="#d0d8da" class=""></circle><path d="m34.28 34.71a9.012 9.012 0 0 1 -11.28-8.71 8.919 8.919 0 0 1 .49-2.93 24 24 0 0 0 10.79 11.64z" fill="#656b76" data-original="#656b76"></path><path d="m34.28 34.71a9.012 9.012 0 0 1 -11.28-8.71 8.919 8.919 0 0 1 .49-2.93 24 24 0 0 0 10.79 11.64z" fill="#464a51" data-original="#464a51" class=""></path><path d="m33.62 29.65a3.833 3.833 0 0 1 -1.62.35 4 4 0 0 1 -4-4 .66.66 0 0 1 .01-.14 8.937 8.937 0 0 0 5.61 3.79z" fill="#93999a" data-original="#93999a"></path><circle cx="35.5" cy="24.5" fill="#e9f1f2" r="1.5" data-original="#e9f1f2"></circle><path d="m52 57h-40l3-8h34z" fill="#93999a" data-original="#93999a"></path><rect fill="#e9f1f2" height="4" rx="2" width="38" x="13" y="45" data-original="#e9f1f2"></rect><rect fill="#e9f1f2" height="4" rx="2" width="46" x="9" y="57" data-original="#e9f1f2"></rect><path d="m51 47a2.015 2.015 0 0 1 -2 2h-34a2.006 2.006 0 0 1 -2-2 2.015 2.015 0 0 1 2-2 2.006 2.006 0 0 0 2 2z" fill="#d0d8da" data-original="#d0d8da" class=""></path><path d="m55 59a2.015 2.015 0 0 1 -2 2h-42a2.006 2.006 0 0 1 -2-2 2.015 2.015 0 0 1 2-2 2.006 2.006 0 0 0 2 2z" fill="#d0d8da" data-original="#d0d8da" class=""></path><path d="m52 57h-40l3-8h34l.75 2h-32.75a1.382 1.382 0 0 0 1.24 2h32.26z" fill="#656b76" data-original="#656b76"></path><ellipse cx="45" cy="13" fill="#f4adad" rx="3" ry="5" transform="matrix(.707 -.707 .707 .707 3.988 35.627)" data-original="#ade8f4" class=""></ellipse></g><g id="Outline_copy" fill="#323232" data-name="Outline copy"><path d="m53 56h-.307l-2.37-6.321a2.985 2.985 0 0 0 -.219-5.462 24.954 24.954 0 0 0 .98-33.355 1 1 0 0 0 -1.527 1.292 22.959 22.959 0 0 1 -2.089 31.846h-6.468a1 1 0 0 0 0 2h8a1 1 0 0 1 0 2h-34a1 1 0 0 1 0-2h22a1 1 0 0 0 0-2h-4v-1a1 1 0 0 0 -2 0v1h-14.468a22.988 22.988 0 0 1 30.314-34.557 1 1 0 1 0 1.293-1.526 24.987 24.987 0 0 0 -34.239 36.3 2.985 2.985 0 0 0 -.219 5.462l-2.374 6.321h-.307a3 3 0 0 0 0 6h13a1 1 0 0 0 0-2h-13a1 1 0 0 1 0-2h42a1 1 0 0 1 0 2h-25a1 1 0 0 0 0 2h25a3 3 0 0 0 0-6zm-39.557 0 2.25-6h32.614l2.25 6z" fill="#323232" data-original="#323232" class=""></path><path d="m38 52h-12a1 1 0 0 0 0 2h12a1 1 0 0 0 0-2z" fill="#323232" data-original="#323232" class=""></path><path d="m46 52h-3a1 1 0 0 0 0 2h3a1 1 0 0 0 0-2z" fill="#323232" data-original="#323232" class=""></path><path d="m22 52h-4a1 1 0 0 0 0 2h4a1 1 0 0 0 0-2z" fill="#323232" data-original="#323232" class=""></path><path d="m48.782 25.377c-.304-.383-7.569-9.377-16.782-9.377s-16.478 8.994-16.782 9.377a1 1 0 0 0 0 1.246c.304.383 7.569 9.377 16.782 9.377s16.478-8.994 16.782-9.377a1 1 0 0 0 0-1.246zm-31.463.623a30.234 30.234 0 0 1 6.168-5.226 9.948 9.948 0 0 0 -.018 10.435 30.38 30.38 0 0 1 -6.15-5.209zm23.165 5.244a9.831 9.831 0 0 0 1.473-4.393 1 1 0 0 0 -1.992-.168 8 8 0 1 1 -.493-3.522 1 1 0 0 0 1.869-.711 9.8 9.8 0 0 0 -.842-1.679 30.353 30.353 0 0 1 6.182 5.229 30.2 30.2 0 0 1 -6.197 5.244z" fill="#323232" data-original="#323232" class=""></path><path d="m32 21a5 5 0 1 0 5 5 5.006 5.006 0 0 0 -5-5zm0 8a3 3 0 1 1 3-3 3 3 0 0 1 -3 3z" fill="#323232" data-original="#323232" class=""></path><path d="m48.737 31.085a1 1 0 0 0 -1.413-.062c-3.473 3.183-8.951 6.977-15.324 6.977s-11.851-3.794-15.324-6.977a1 1 0 0 0 -1.352 1.477c3.736 3.42 9.66 7.5 16.676 7.5s12.94-4.08 16.676-7.5a1 1 0 0 0 .061-1.415z" fill="#323232" data-original="#323232" class=""></path><path d="m15.324 19.5a1 1 0 0 0 1.352 1.475c3.473-3.181 8.951-6.975 15.324-6.975s11.851 3.794 15.324 6.977a1 1 0 0 0 1.352-1.477c-3.736-3.42-9.66-7.5-16.676-7.5s-12.94 4.08-16.676 7.5z" fill="#323232" data-original="#323232" class=""></path><path d="m33 9v-2a1 1 0 0 0 -2 0v2a1 1 0 0 0 2 0z" fill="#323232" data-original="#323232" class=""></path><path d="m40 12a1 1 0 0 0 .9-.553l1-2a1 1 0 1 0 -1.79-.894l-1 2a1 1 0 0 0 .89 1.447z" fill="#323232" data-original="#323232" class=""></path><path d="m24 12a1 1 0 0 0 .894-1.447l-1-2a1 1 0 0 0 -1.79.894l1 2a1 1 0 0 0 .896.553z" fill="#323232" data-original="#323232" class=""></path><path d="m43.293 38.293a1 1 0 0 0 0 1.414l2 2a1 1 0 0 0 1.414-1.414l-2-2a1 1 0 0 0 -1.414 0z" fill="#323232" data-original="#323232" class=""></path><path d="m19.293 38.293-2 2a1 1 0 1 0 1.414 1.414l2-2a1 1 0 0 0 -1.414-1.414z" fill="#323232" data-original="#323232" class=""></path></g></g></g></svg>