<svg xmlns="http://www.w3.org/2000/svg" version="1.1" xmlns:xlink="http://www.w3.org/1999/xlink" xmlns:svgjs="http://svgjs.com/svgjs" width="512" height="512" x="0" y="0" viewBox="0 0 64 64" style="enable-background:new 0 0 512 512" xml:space="preserve" class=""><g><g xmlns="http://www.w3.org/2000/svg" id="Fill_Outline" data-name="Fill Outline"><g id="Color"><path d="m50 15-4 2 4 1v27l-4 3 4 1v4h-40v-5l4-2-4-1v-4l3-2-3-1v-6l3-2-3-1v-8l3-2-3-2v-6h40z" fill="#f9dbaf" data-original="#f9dbaf" class=""></path><g fill="#edb88e"><path d="m50 23.57v17.77c-3.01 3.67-5.47 4.4-7.24 3.38-2.39-1.38-2.64-5.43 1.92-13.32a68.286 68.286 0 0 1 5.32-7.83z" fill="#edb88e" data-original="#edb88e"></path><path d="m18.76 15.76a5.944 5.944 0 0 0 -1.76 4.24 24.006 24.006 0 0 0 24 24h9v1l-4 3 4 1v4h-40v-5l4-2-4-1v-4l3-2-3-1v-6l3-2-3-1v-8l3-2-3-2v-6h40v3h-27a5.944 5.944 0 0 0 -4.24 1.76z" fill="#edb88e" data-original="#edb88e"></path><rect height="4" rx="2" width="54" x="3" y="5" fill="#edb88e" data-original="#edb88e"></rect></g><path d="m57 7a2.015 2.015 0 0 1 -2 2h-50a2.006 2.006 0 0 1 -2-2h1a2.006 2.006 0 0 0 2-2h48a2.006 2.006 0 0 0 2 2z" fill="#da9367" data-original="#da9367"></path><rect fill="#fcf2ad" height="8" rx="2" width="44" x="8" y="3" data-original="#fcf2ad"></rect><rect fill="#edb88e" height="4" rx="2" width="54" x="3" y="55" data-original="#edb88e"></rect><path d="m57 57a2.015 2.015 0 0 1 -2 2h-50a2.006 2.006 0 0 1 -2-2h1a2.006 2.006 0 0 0 2-2h48a2.006 2.006 0 0 0 2 2z" fill="#da9367" data-original="#da9367"></path><rect fill="#fcf2ad" height="8" rx="2" width="44" x="8" y="53" data-original="#fcf2ad"></rect><path d="m54.337 33.4c-4.556 7.892-8.189 9.706-10.58 8.326s-2.637-5.436 1.92-13.326 12.188-16.634 14.58-15.253-1.364 12.36-5.92 20.253z" fill="#e9f1f2" data-original="#e9f1f2"></path><path d="m54.34 33.4c-4.56 7.89-8.19 9.7-10.58 8.32-1.24-.72-1.9-2.15-1.61-4.46a3.052 3.052 0 0 0 .61.46c2.39 1.38 6.02-.43 10.58-8.32 3.09-5.36 5.82-12.16 6.49-16.39h.01a.9.9 0 0 1 .42.13c2.39 1.39-1.37 12.37-5.92 20.26z" fill="#d0d8da" data-original="#d0d8da"></path><path d="m36 23h-12l-2-8 5 3 3-3 3 3 5-3z" fill="#fcea42" data-original="#fcea42"></path><path d="m52 7.76v1.24a2.006 2.006 0 0 1 -2 2h-40a2.006 2.006 0 0 1 -2-2v-4a2.006 2.006 0 0 1 2-2h2.13a4.993 4.993 0 0 0 4.99 4.76z" fill="#f9dbaf" data-original="#f9dbaf" class=""></path><path d="m52 57.76v1.24a2.006 2.006 0 0 1 -2 2h-40a2.006 2.006 0 0 1 -2-2v-4a2.006 2.006 0 0 1 2-2h2.13a4.993 4.993 0 0 0 4.99 4.76z" fill="#f9dbaf" data-original="#f9dbaf" class=""></path><path d="m36 23h-12l-2-8 2.934 4.108a2 2 0 0 0 3.466-.375l1.6-3.733 1.6 3.733a2 2 0 0 0 3.466.375l2.934-4.108z" fill="#fdc741" data-original="#fdc741"></path></g><g id="Outline_copy" fill="#323232" data-name="Outline copy"><path d="m55 54h-2.184a3 3 0 0 0 -2.816-2h-6a1 1 0 0 0 0 2h6a1 1 0 0 1 1 1v4a1 1 0 0 1 -1 1h-6v-1a1 1 0 0 0 -2 0v1h-19a1 1 0 0 0 0 2h27a3 3 0 0 0 2.816-2h2.184a3.015 3.015 0 0 0 3-3 3 3 0 0 0 -3-3zm.693 3.713a.959.959 0 0 1 -.693.287h-2v-2h2a1 1 0 0 1 1 1 .977.977 0 0 1 -.307.713z" fill="#323232" data-original="#323232"></path><path d="m60.757 12.278c-2.2-1.267-6.143 2.263-9.757 6.693v-.971a1 1 0 0 0 -.758-.97l-1.377-.344 1.582-.791a1 1 0 0 0 .553-.895v-3.184a3 3 0 0 0 1.816-1.816h2.184a3.015 3.015 0 0 0 3-3 3 3 0 0 0 -3-3h-2.184a3 3 0 0 0 -2.816-2h-40a3 3 0 0 0 -2.816 2h-2.184a3.013 3.013 0 0 0 -3 3 3 3 0 0 0 3 3h2.184a3 3 0 0 0 2.816 2h31a1 1 0 0 0 0-2h-6v-1a1 1 0 0 0 -2 0v1h-23a1 1 0 0 1 -1-1v-4a1 1 0 0 1 1-1h7v1a1 1 0 0 0 2 0v-1h27v2a1 1 0 0 0 2 0v-2h2a1 1 0 0 1 1 1v4a1 1 0 0 1 -1 1h-5a1 1 0 0 0 0 2h4v2.382l-3.447 1.723a1 1 0 0 0 .205 1.865l3.242.811v2.771a70.494 70.494 0 0 0 -4.189 6.348c-2.213 3.833-3.457 7.033-3.695 9.508-.228 2.367.48 3.757 1.336 4.576l-1.561 2.706a1 1 0 1 0 1.732 1l1.558-2.7a4.034 4.034 0 0 0 1.18.178 6.1 6.1 0 0 0 3.639-1.432v2.764l-3.6 2.7a1 1 0 0 0 .358 1.77l4 1a1.017 1.017 0 0 0 .242.03 1 1 0 0 0 .241-1.97l-1.961-.491 2.32-1.739a1 1 0 0 0 .4-.8v-5.125a34.474 34.474 0 0 0 4.2-5.975c.992-1.718 1.966-3.621 2.894-5.655a1 1 0 0 0 -1.821-.83c-.9 1.976-1.844 3.821-2.805 5.485-3.09 5.353-6.061 8.295-8.216 8.231l10.871-18.825a1 1 0 1 0 -1.732-1l-10.857 18.804a3.971 3.971 0 0 1 -.428-2.511c.211-2.19 1.368-5.118 3.437-8.7 5.239-9.073 12.073-15.552 13.214-14.887.4.228.673 2.969-1.947 9.766a1 1 0 0 0 1.867.719c1.845-4.797 3.532-10.797 1.08-12.219zm-56.757-5.278a.976.976 0 0 1 .306-.713.965.965 0 0 1 .694-.287h2v2h-2a1 1 0 0 1 -1-1zm52 0a.977.977 0 0 1 -.307.713.959.959 0 0 1 -.693.287h-2v-2h2a1 1 0 0 1 1 1z" fill="#323232" data-original="#323232"></path><path d="m37.485 14.143-4.33 2.6-2.448-2.448a1 1 0 0 0 -1.414 0l-2.448 2.448-4.33-2.6a1 1 0 0 0 -1.485 1.1l2 8a1 1 0 0 0 .97.757h12a1 1 0 0 0 .97-.758l2-8a1 1 0 0 0 -1.485-1.1zm-2.266 7.857h-10.438l-1.225-4.9 2.929 1.757a1 1 0 0 0 1.222-.15l2.293-2.293 2.293 2.293a1 1 0 0 0 1.222.15l2.929-1.757z" fill="#323232" data-original="#323232"></path><circle cx="30" cy="20" r="1" fill="#323232" data-original="#323232"></circle><path d="m41 27a1 1 0 0 0 -1-1h-12a1 1 0 0 0 0 2h12a1 1 0 0 0 1-1z" fill="#323232" data-original="#323232"></path><path d="m16 31a1 1 0 0 0 1 1h12a1 1 0 0 0 0-2h-12a1 1 0 0 0 -1 1z" fill="#323232" data-original="#323232"></path><path d="m38 32a1 1 0 0 0 0-2h-3a1 1 0 0 0 0 2z" fill="#323232" data-original="#323232"></path><path d="m17 36h6a1 1 0 0 0 0-2h-6a1 1 0 0 0 0 2z" fill="#323232" data-original="#323232"></path><path d="m34 35a1 1 0 0 0 -1-1h-6a1 1 0 0 0 0 2h6a1 1 0 0 0 1-1z" fill="#323232" data-original="#323232"></path><path d="m40 35a1 1 0 0 0 -1-1h-2a1 1 0 0 0 0 2h2a1 1 0 0 0 1-1z" fill="#323232" data-original="#323232"></path><path d="m17 40h11a1 1 0 0 0 0-2h-11a1 1 0 0 0 0 2z" fill="#323232" data-original="#323232"></path><path d="m38 38h-6a1 1 0 0 0 0 2h6a1 1 0 0 0 0-2z" fill="#323232" data-original="#323232"></path><path d="m17 44h12a1 1 0 0 0 0-2h-12a1 1 0 0 0 0 2z" fill="#323232" data-original="#323232"></path><path d="m38 42h-4a1 1 0 0 0 0 2h4a1 1 0 0 0 0-2z" fill="#323232" data-original="#323232"></path><path d="m19 46a1 1 0 0 0 0 2h13a1 1 0 0 0 0-2z" fill="#323232" data-original="#323232"></path><path d="m38 46h-2a1 1 0 0 0 0 2h2a1 1 0 0 0 0-2z" fill="#323232" data-original="#323232"></path><path d="m20 27a1 1 0 0 0 1 1h2a1 1 0 0 0 0-2h-2a1 1 0 0 0 -1 1z" fill="#323232" data-original="#323232"></path><path d="m23 55v-1h17a1 1 0 0 0 0-2h-29v-3.382l3.447-1.718a1 1 0 0 0 -.2-1.865l-3.247-.816v-2.684l2.555-1.7a1 1 0 0 0 -.239-1.78l-2.316-.776v-4.744l2.555-1.7a1 1 0 0 0 -.239-1.78l-2.316-.776v-6.744l2.555-1.7a1 1 0 0 0 0-1.664l-2.555-1.706v-1.465a1 1 0 0 0 -2 0v2a1 1 0 0 0 .445.832l1.755 1.168-1.755 1.168a1 1 0 0 0 -.445.832v8a1 1 0 0 0 .684.948l1.06.354-1.3.866a1 1 0 0 0 -.444.832v6a1 1 0 0 0 .684.948l1.06.354-1.3.866a1 1 0 0 0 -.444.832v4a1 1 0 0 0 .757.97l1.378.344-1.582.791a1 1 0 0 0 -.553.895v4.184a3 3 0 0 0 -1.816 1.816h-2.184a3.013 3.013 0 0 0 -3 3 3 3 0 0 0 3 3h2.184a3 3 0 0 0 2.816 2h9a1 1 0 0 0 0-2h-9a1 1 0 0 1 -1-1v-4a1 1 0 0 1 1-1h3v2a1 1 0 0 0 2 0v-2h6v1a1 1 0 0 0 2 0zm-19 2a.976.976 0 0 1 .306-.713.965.965 0 0 1 .694-.287h2v2h-2a1 1 0 0 1 -1-1z" fill="#323232" data-original="#323232"></path></g></g></g></svg>