<svg xmlns="http://www.w3.org/2000/svg" version="1.1" xmlns:xlink="http://www.w3.org/1999/xlink" xmlns:svgjs="http://svgjs.com/svgjs" width="512" height="512" x="0" y="0" viewBox="0 0 64 64" style="enable-background:new 0 0 512 512" xml:space="preserve" class=""><g><g xmlns="http://www.w3.org/2000/svg" id="outline"><path d="M59.674,32.205a5.8,5.8,0,0,0-4.891-1.182l-3.83,1.524c-.466-7.194-4.409-12.762-10.792-15.2a9.059,9.059,0,0,0-1.333-5.913,1,1,0,0,0-1.723.115,5.956,5.956,0,0,1-1.66,1.959,10.191,10.191,0,0,0-4.025-3.419,1,1,0,0,0-1.35,1.275c.953,2.409.738,3.775.312,4.679-9.274.88-16.563,7.916-17.308,16.506l-3.7-1.482-.154-.048a5.8,5.8,0,0,0-4.891,1.182,6.1,6.1,0,0,0,0,9.59A5.874,5.874,0,0,0,8,43.112a5.527,5.527,0,0,0,1.2-.132l3.866-.773A13.064,13.064,0,0,0,26.083,54H37.917A13.064,13.064,0,0,0,50.938,42.207l3.845.77A5.661,5.661,0,0,0,56,43.11a5.869,5.869,0,0,0,3.67-1.315,6.1,6.1,0,0,0,0-9.59ZM13,35.53a8.962,8.962,0,0,0-7.534.624l1.068,1.692c2.4-1.515,5.291-.653,6.466-.191v2.526l-4.217.842a3.8,3.8,0,0,1-3.2-.789,4.1,4.1,0,0,1,0-6.468A3.876,3.876,0,0,1,8,32.891a3.592,3.592,0,0,1,.708.069L13,34.677ZM37.917,52H26.083A11.051,11.051,0,0,1,15.026,41.518L21,37.535V32a4.9,4.9,0,0,1,5-5,4.734,4.734,0,0,1,5,5h2a4.734,4.734,0,0,1,5-5,4.9,4.9,0,0,1,5,5v5.535l5.974,3.983A11.051,11.051,0,0,1,37.917,52ZM49,39.132l-4-2.667V32a6.926,6.926,0,0,0-7-7,6.75,6.75,0,0,0-6,3.179A6.75,6.75,0,0,0,26,25a6.926,6.926,0,0,0-7,7v4.465l-4,2.667V34c0-8.36,7.058-15.39,16.067-16a1,1,0,0,0,.785-.474,6.131,6.131,0,0,0,.817-4.23,4.193,4.193,0,0,1,1.362,1.954,1,1,0,0,0,1.416.647,8.793,8.793,0,0,0,2.4-1.9,6.235,6.235,0,0,1,.194,3.737,1,1,0,0,0,.65,1.223C45.242,21.1,49,26.58,49,34Zm9.421,1.1a3.82,3.82,0,0,1-3.225.786L51,40.181V37.655c1.176-.461,4.069-1.324,6.466.191l1.068-1.692A8.962,8.962,0,0,0,51,35.53v-.853l4.292-1.717a3.813,3.813,0,0,1,3.13.806,4.1,4.1,0,0,1,0,6.468Z" fill="#ffffff" data-original="#000000" class=""></path><rect x="29" y="40" width="2" height="2" fill="#ffffff" data-original="#000000" class=""></rect><rect x="33" y="40" width="2" height="2" fill="#ffffff" data-original="#000000" class=""></rect><path d="M29.668,36.746a3.681,3.681,0,0,0,1.432-2.6,2.32,2.32,0,0,0-.941-1.868A3.233,3.233,0,0,0,27,31.854a3.161,3.161,0,0,0-3.135.453,2.425,2.425,0,0,0-.906,1.935,3.54,3.54,0,0,0,1.371,2.5L27,39.414Zm-4.051-1.533a1.687,1.687,0,0,1-.656-1.019.4.4,0,0,1,.177-.343,1.147,1.147,0,0,1,.7-.229.888.888,0,0,1,.545.165l.617.484.617-.484a1.2,1.2,0,0,1,1.3.056c.185.148.184.239.184.288a1.864,1.864,0,0,1-.717,1.082L27,36.586l-1.293-1.293Z" fill="#ffffff" data-original="#000000" class=""></path><path d="M40.159,32.276A3.233,3.233,0,0,0,37,31.854a3.161,3.161,0,0,0-3.135.453,2.425,2.425,0,0,0-.906,1.935,3.54,3.54,0,0,0,1.371,2.5L37,39.414l2.668-2.668a3.681,3.681,0,0,0,1.432-2.6A2.32,2.32,0,0,0,40.159,32.276Zm-1.776,2.937L37,36.586l-1.293-1.293-.09-.08a1.687,1.687,0,0,1-.656-1.019.4.4,0,0,1,.177-.343,1.147,1.147,0,0,1,.7-.229.888.888,0,0,1,.545.165l.617.484.617-.484a1.2,1.2,0,0,1,1.3.056c.185.148.184.239.184.288A1.864,1.864,0,0,1,38.383,35.213Z" fill="#ffffff" data-original="#000000" class=""></path><path d="M27,45a4.686,4.686,0,0,0,5,5,4.686,4.686,0,0,0,5-5V44H27Zm7.89,1A2.7,2.7,0,0,1,32,48a2.7,2.7,0,0,1-2.89-2Z" fill="#ffffff" data-original="#000000" class=""></path></g></g></svg>