<svg xmlns="http://www.w3.org/2000/svg" version="1.1" xmlns:xlink="http://www.w3.org/1999/xlink" xmlns:svgjs="http://svgjs.com/svgjs" width="512" height="512" x="0" y="0" viewBox="0 0 64 64" style="enable-background:new 0 0 512 512" xml:space="preserve" class=""><g><g xmlns="http://www.w3.org/2000/svg" id="outline"><path d="M59.674,32.205a5.791,5.791,0,0,0-4.891-1.182l-3.83,1.523c-.466-7.193-4.409-12.761-10.791-15.195a9.063,9.063,0,0,0-1.334-5.913A1.035,1.035,0,0,0,37.934,11a1,1,0,0,0-.829.551,5.968,5.968,0,0,1-1.66,1.959,10.184,10.184,0,0,0-4.025-3.419,1,1,0,0,0-1.35,1.275c.953,2.408.738,3.774.312,4.679-9.275.88-16.563,7.916-17.308,16.506l-3.7-1.482-.155-.048a5.79,5.79,0,0,0-4.891,1.182,6.1,6.1,0,0,0,0,9.59A5.874,5.874,0,0,0,8,43.112a5.527,5.527,0,0,0,1.2-.132l3.866-.773A13.064,13.064,0,0,0,26.083,54H37.917A13.064,13.064,0,0,0,50.938,42.207l3.845.77A5.661,5.661,0,0,0,56,43.11a5.869,5.869,0,0,0,3.67-1.315,6.1,6.1,0,0,0,0-9.59ZM13,35.529a8.962,8.962,0,0,0-7.534.625l1.068,1.692c2.4-1.515,5.291-.652,6.466-.191v2.526l-4.217.842a3.8,3.8,0,0,1-3.2-.789,4.1,4.1,0,0,1,0-6.468A3.874,3.874,0,0,1,8,32.891a3.592,3.592,0,0,1,.708.069L13,34.677ZM37.917,52H26.083A11.051,11.051,0,0,1,15.026,41.518L21,37.535V32a4.9,4.9,0,0,1,5-5,4.734,4.734,0,0,1,5,5h2a4.734,4.734,0,0,1,5-5,4.9,4.9,0,0,1,5,5v5.535l5.974,3.983A11.051,11.051,0,0,1,37.917,52ZM49,39.132l-4-2.667V32a6.926,6.926,0,0,0-7-7,6.75,6.75,0,0,0-6,3.179A6.75,6.75,0,0,0,26,25a6.926,6.926,0,0,0-7,7v4.465l-4,2.667V34c0-8.36,7.058-15.39,16.068-16a1,1,0,0,0,.784-.475,6.13,6.13,0,0,0,.817-4.23,4.208,4.208,0,0,1,1.362,1.955,1,1,0,0,0,1.416.647,8.793,8.793,0,0,0,2.4-1.9,6.235,6.235,0,0,1,.194,3.737,1,1,0,0,0,.651,1.223C45.242,21.1,49,26.58,49,34Zm9.421,1.1a3.816,3.816,0,0,1-3.225.786L51,40.181v-2.53c1.17-.464,4.051-1.331,6.466.195l1.068-1.692A8.963,8.963,0,0,0,51,35.529v-.852l4.292-1.717a3.807,3.807,0,0,1,3.13.806,4.1,4.1,0,0,1,0,6.468Z" fill="#ffffff" data-original="#000000"></path><circle cx="27" cy="36" r="2" fill="#ffffff" data-original="#000000"></circle><path d="M27.692,31.951l.624-1.9a5.452,5.452,0,0,0-6.148,2.393l1.664,1.11A3.4,3.4,0,0,1,27.692,31.951Z" fill="#ffffff" data-original="#000000"></path><circle cx="37" cy="36" r="2" fill="#ffffff" data-original="#000000"></circle><path d="M35.684,30.052l.624,1.9a3.407,3.407,0,0,1,3.86,1.6l1.664-1.11A5.452,5.452,0,0,0,35.684,30.052Z" fill="#ffffff" data-original="#000000"></path><rect x="29" y="40" width="2" height="2" fill="#ffffff" data-original="#000000"></rect><rect x="33" y="40" width="2" height="2" fill="#ffffff" data-original="#000000"></rect><path d="M32,47a6.453,6.453,0,0,1-5.171-2.559l-1.661,1.114a8.5,8.5,0,0,0,13.664,0l-1.664-1.11A6.48,6.48,0,0,1,32,47Z" fill="#ffffff" data-original="#000000"></path></g></g></svg>