<svg xmlns="http://www.w3.org/2000/svg" version="1.1" xmlns:xlink="http://www.w3.org/1999/xlink" xmlns:svgjs="http://svgjs.com/svgjs" width="512" height="512" x="0" y="0" viewBox="0 0 64 64" style="enable-background:new 0 0 512 512" xml:space="preserve" class=""><g><g xmlns="http://www.w3.org/2000/svg" id="outline"><path d="m59.674 32.205a5.793 5.793 0 0 0 -4.891-1.182l-3.83 1.524c-.466-7.194-4.409-12.762-10.792-15.2a9.059 9.059 0 0 0 -1.333-5.913 1 1 0 0 0 -1.723.115 5.956 5.956 0 0 1 -1.66 1.959 10.191 10.191 0 0 0 -4.025-3.419 1 1 0 0 0 -1.35 1.275c.953 2.409.738 3.775.312 4.679-9.274.88-16.563 7.916-17.308 16.506l-3.7-1.482-.154-.048a5.8 5.8 0 0 0 -4.891 1.182 6.1 6.1 0 0 0 0 9.59 5.874 5.874 0 0 0 3.671 1.321 5.527 5.527 0 0 0 1.2-.132l3.866-.773a13.064 13.064 0 0 0 13.017 11.793h11.834a13.064 13.064 0 0 0 13.021-11.793l3.845.77a5.661 5.661 0 0 0 1.217.133 5.869 5.869 0 0 0 3.67-1.315 6.1 6.1 0 0 0 0-9.59zm-46.674 3.324a8.959 8.959 0 0 0 -7.534.625l1.068 1.692c2.4-1.515 5.291-.653 6.466-.191v2.526l-4.217.842a3.8 3.8 0 0 1 -3.2-.789 4.1 4.1 0 0 1 0-6.468 3.876 3.876 0 0 1 2.417-.875 3.592 3.592 0 0 1 .708.069l4.292 1.717zm24.917 16.471h-11.834a11.051 11.051 0 0 1 -11.057-10.482l5.974-3.983v-5.535a4.9 4.9 0 0 1 5-5 4.734 4.734 0 0 1 5 5h2a4.734 4.734 0 0 1 5-5 4.9 4.9 0 0 1 5 5v5.535l5.974 3.983a11.051 11.051 0 0 1 -11.057 10.482zm11.083-12.868-4-2.667v-4.465a6.926 6.926 0 0 0 -7-7 6.75 6.75 0 0 0 -6 3.179 6.75 6.75 0 0 0 -6-3.179 6.926 6.926 0 0 0 -7 7v4.465l-4 2.667v-5.132c0-8.36 7.058-15.39 16.067-16a1 1 0 0 0 .785-.474 6.131 6.131 0 0 0 .817-4.23 4.193 4.193 0 0 1 1.362 1.954 1 1 0 0 0 1.416.647 8.793 8.793 0 0 0 2.4-1.9 6.235 6.235 0 0 1 .194 3.737 1 1 0 0 0 .65 1.223c6.551 2.143 10.309 7.623 10.309 15.043zm9.421 1.1a3.816 3.816 0 0 1 -3.225.786l-4.196-.837v-2.526c1.176-.462 4.069-1.324 6.466.191l1.068-1.692a8.959 8.959 0 0 0 -7.534-.625v-.852l4.292-1.717a3.809 3.809 0 0 1 3.13.806 4.1 4.1 0 0 1 0 6.468z" fill="#ffffff" data-original="#000000"></path><circle cx="27" cy="36" r="2" fill="#ffffff" data-original="#000000"></circle><circle cx="37" cy="36" r="2" fill="#ffffff" data-original="#000000"></circle><path d="m29 40h2v2h-2z" fill="#ffffff" data-original="#000000"></path><path d="m33 40h2v2h-2z" fill="#ffffff" data-original="#000000"></path><path d="m33.86 31h7.28v2.001h-7.28z" transform="matrix(.962 -.274 .274 .962 -7.34 11.515)" fill="#ffffff" data-original="#000000"></path><path d="m25.5 28.36h2.001v7.28h-2.001z" transform="matrix(.275 -.962 .962 .275 -11.549 48.689)" fill="#ffffff" data-original="#000000"></path><path d="m30.079 45.233a5.8 5.8 0 0 0 -3.879 2.167l1.6 1.2a3.793 3.793 0 0 1 2.422-1.371 4.124 4.124 0 0 1 3.071 1.478l1.414-1.414a5.941 5.941 0 0 0 -4.628-2.06z" fill="#ffffff" data-original="#000000"></path></g></g></svg>