<svg xmlns="http://www.w3.org/2000/svg" version="1.1" xmlns:xlink="http://www.w3.org/1999/xlink" xmlns:svgjs="http://svgjs.com/svgjs" width="512" height="512" x="0" y="0" viewBox="0 0 64 64" style="enable-background:new 0 0 512 512" xml:space="preserve" class=""><g><g xmlns="http://www.w3.org/2000/svg" id="outline"><path d="M59.674,32.205a5.794,5.794,0,0,0-4.891-1.182l-3.83,1.523c-.466-7.193-4.409-12.761-10.791-15.195a9.063,9.063,0,0,0-1.334-5.913A1.035,1.035,0,0,0,37.934,11a1,1,0,0,0-.829.551,5.968,5.968,0,0,1-1.66,1.959,10.184,10.184,0,0,0-4.025-3.419,1,1,0,0,0-1.35,1.275c.953,2.408.738,3.774.312,4.679-9.275.88-16.563,7.916-17.308,16.506l-3.7-1.482-.155-.048a5.793,5.793,0,0,0-4.891,1.182,6.1,6.1,0,0,0,0,9.59A5.874,5.874,0,0,0,8,43.112a5.527,5.527,0,0,0,1.2-.132l3.866-.773A13.064,13.064,0,0,0,26.083,54H37.917A13.064,13.064,0,0,0,50.938,42.207l3.845.77A5.661,5.661,0,0,0,56,43.11a5.869,5.869,0,0,0,3.67-1.315,6.1,6.1,0,0,0,0-9.59ZM13,35.529a8.959,8.959,0,0,0-7.534.625l1.068,1.692c2.4-1.515,5.291-.652,6.466-.191v2.526l-4.217.842a3.792,3.792,0,0,1-3.2-.789,4.1,4.1,0,0,1,0-6.468A3.874,3.874,0,0,1,8,32.891a3.592,3.592,0,0,1,.708.069L13,34.677ZM37.917,52H26.083A11.051,11.051,0,0,1,15.026,41.518L21,37.535V32a4.9,4.9,0,0,1,5-5,4.734,4.734,0,0,1,5,5h2a4.734,4.734,0,0,1,5-5,4.9,4.9,0,0,1,5,5v5.535l5.974,3.983A11.051,11.051,0,0,1,37.917,52ZM49,39.132l-4-2.667V32a6.926,6.926,0,0,0-7-7,6.75,6.75,0,0,0-6,3.179A6.75,6.75,0,0,0,26,25a6.926,6.926,0,0,0-7,7v4.465l-4,2.667V34c0-8.36,7.058-15.39,16.068-16a1,1,0,0,0,.784-.475,6.13,6.13,0,0,0,.817-4.23,4.208,4.208,0,0,1,1.362,1.955,1,1,0,0,0,1.416.647,8.793,8.793,0,0,0,2.4-1.9,6.235,6.235,0,0,1,.194,3.737,1,1,0,0,0,.651,1.223C45.242,21.1,49,26.58,49,34Zm9.421,1.1a3.823,3.823,0,0,1-3.225.786L51,40.181V37.652c1.17-.464,4.051-1.332,6.466.194l1.068-1.692A8.959,8.959,0,0,0,51,35.529v-.852l4.292-1.717a3.811,3.811,0,0,1,3.13.806,4.1,4.1,0,0,1,0,6.468Z" fill="#ffffff" data-original="#000000" class=""></path><circle cx="27" cy="36" r="2" fill="#ffffff" data-original="#000000" class=""></circle><circle cx="37" cy="36" r="2" fill="#ffffff" data-original="#000000" class=""></circle><rect x="29" y="40" width="2" height="2" fill="#ffffff" data-original="#000000" class=""></rect><rect x="33" y="40" width="2" height="2" fill="#ffffff" data-original="#000000" class=""></rect><path d="M25.535,38.155a1,1,0,0,0-.963-.058C21.538,39.534,20,40.848,20,42a3,3,0,0,0,6,0V39A1,1,0,0,0,25.535,38.155ZM24,42a1,1,0,0,1-2,.1,7.71,7.71,0,0,1,2-1.451Z" fill="#ffffff" data-original="#000000" class=""></path><path d="M38.465,38.155A1,1,0,0,0,38,39v3a3,3,0,0,0,6,0c0-1.152-1.538-2.466-4.572-3.9A1,1,0,0,0,38.465,38.155ZM40,40.654A7.862,7.862,0,0,1,42,42.1,1,1,0,0,1,40,42Z" fill="#ffffff" data-original="#000000" class=""></path><path d="M29.555,31.832l-1.11-1.664a27.585,27.585,0,0,1-5.762,2.884l.633,1.9A29.007,29.007,0,0,0,29.555,31.832Z" fill="#ffffff" data-original="#000000" class=""></path><path d="M41.317,33.052a27.585,27.585,0,0,1-5.762-2.884l-1.11,1.664a29.007,29.007,0,0,0,6.239,3.116Z" fill="#ffffff" data-original="#000000" class=""></path><path d="M33.352,45.587a5.4,5.4,0,0,0-3.281,3.042l1.855.747a3.409,3.409,0,0,1,1.947-1.858c.962-.249,2.143.174,3.5,1.263l1.25-1.562C36.739,45.71,34.964,45.162,33.352,45.587Z" fill="#ffffff" data-original="#000000" class=""></path></g></g></svg>